# xmcd
#
# Track frame offsets:
#	150
#	12362
#	31052
#	41230
#	58910
#	68870
#	79780
#	96195
#	108697
#	137042
#	150132
#	169560
#	199300
#	219182
#	246232
#	258790
#	273665
#	290090
#	302382
#
# Disc length: 4237 seconds
#
# Revision: 1
# Processed by: cddbd v1.5.2PL0 Copyright (c) Steve Scherf et al.
# Submitted via: audiograbber 1.83.01
#
DISCID=0b108b13
DTITLE=Various Artist - Live at the Kremlin Vol1
DYEAR=1990
DGENRE=
TTITLE0=Leroi Brothers - Big time Operator
TTITLE1=Leroi Brothers - Flammes D'enfer
TTITLE2=Leroi Brothers - You're gonna miss me
TTITLE3=Bruce Joyner - Common man
TTITLE4=Bruce Joyner - Hippy Hippy Shake
TTITLE5=Bruce Joyner - Good golly Miss Molly
TTITLE6=Elliott Murphy - Destiny
TTITLE7=Elliott Murphy - Everyday
TTITLE8=Elliott Murphy - Diamonds by the yard
TTITLE9=Russ Tolman - Vegas
TTITLE10=Calvin Russel - You're my baby
TTITLE11=Calvin Russel - My way
TTITLE12=Calvin Russel - Baby what you want me to do
TTITLE13=Red River - Ain't working no more
TTITLE14=Red River - Come on over
TTITLE15=Red River - Going down
TTITLE16=Chris Bailey - Swinf for the crime
TTITLE17=Chris Bailey - Curtains
TTITLE18=Brian James - Fan Club
EXTD=
EXTT0=
EXTT1=
EXTT2=
EXTT3=
EXTT4=
EXTT5=
EXTT6=
EXTT7=
EXTT8=
EXTT9=
EXTT10=
EXTT11=
EXTT12=
EXTT13=
EXTT14=
EXTT15=
EXTT16=
EXTT17=
EXTT18=
PLAYORDER=
